<svg width="50" height="67" viewBox="0 0 50 67" fill="none" xmlns="http://www.w3.org/2000/svg">
<g filter="url(#filter0_d_72_14)">
<path d="M4.79248 33.3629V21.5698C4.79248 10.5241 13.7468 1.56982 24.7925 1.56982H26C37.0457 1.56982 46 10.5241 46 21.5698V33.3629C46 44.4086 37.0457 53.3629 26 53.3629H24.7925C13.7468 53.3629 4.79248 44.4086 4.79248 33.3629Z" fill="#E8BEAC" fill-opacity="0.92"/>
<path d="M22.0189 24.7198C22.0189 27.1921 19.9923 29.213 17.4717 29.213C14.9512 29.213 12.9246 27.1921 12.9246 24.7198C12.9246 22.2474 14.9512 20.2266 17.4717 20.2266C19.9923 20.2266 22.0189 22.2474 22.0189 24.7198Z" stroke="black" stroke-width="2"/>
<path d="M38.6604 24.7198C38.6604 27.1921 36.6338 29.213 34.1132 29.213C31.5926 29.213 29.566 27.1921 29.566 24.7198C29.566 22.2474 31.5926 20.2266 34.1132 20.2266C36.6338 20.2266 38.6604 22.2474 38.6604 24.7198Z" stroke="black" stroke-width="2"/>
<line x1="23.0189" y1="23.7197" x2="29.3585" y2="23.7197" stroke="black" stroke-width="2"/>
<path d="M38.8679 24.3271H46" stroke="black" stroke-width="2"/>
<path d="M12.3208 24.3271H4.39624" stroke="black" stroke-width="2"/>
<path d="M5.06847 47.288C4.49248 39.987 10.2618 33.7446 17.5855 33.7446H33.4441C40.3785 33.7446 46 39.3661 46 46.3005C46 53.235 40.3785 58.8564 33.4441 58.8564H17.5855C11.034 58.8564 5.58373 53.8192 5.06847 47.288Z" fill="black"/>
<rect x="15.6211" y="39.8418" width="19.1458" height="5.65488" rx="2.82744" fill="#E8BEAC" fill-opacity="0.92"/>
<path d="M4.79248 14.7076C4.79248 6.78253 11.5532 0.542837 19.4529 1.17712L12.6872 5.5578C10.5621 6.93374 9.51907 9.48775 10.0734 11.9579C10.4904 13.8162 10.0076 15.7624 8.77039 17.2104L8.22754 17.8457C7.03346 19.2431 6.37739 21.0209 6.37739 22.859V46.2921C6.37739 46.7298 6.02259 47.0846 5.58493 47.0846C5.14727 47.0846 4.79248 46.7298 4.79248 46.2921V14.7076Z" fill="#090000"/>
<path d="M30.5471 1.17704C38.9778 0.962972 45.9999 7.737 45.9999 16.1704V48.2501C45.9999 48.9066 45.4678 49.4388 44.8113 49.4388C44.1548 49.4388 43.6226 48.9066 43.6226 48.2501V19.152C43.6226 14.7216 41.664 10.5178 38.272 7.66774L30.5471 1.17704Z" fill="#090000"/>
<path d="M36.4906 2.21151C36.4906 3.39351 31.7009 4.70838 25.7925 4.70838C19.8841 4.70838 15.0944 3.39351 15.0944 2.21151C15.0944 1.0295 19.8841 0.784668 25.7925 0.784668C31.7009 0.784668 36.4906 1.0295 36.4906 2.21151Z" fill="black"/>
</g>
<defs>
<filter id="filter0_d_72_14" x="0.39624" y="0.784668" width="49.6038" height="66.0718" filterUnits="userSpaceOnUse" color-interpolation-filters="sRGB">
<feFlood flood-opacity="0" result="BackgroundImageFix"/>
<feColorMatrix in="SourceAlpha" type="matrix" values="0 0 0 0 0 0 0 0 0 0 0 0 0 0 0 0 0 0 127 0" result="hardAlpha"/>
<feOffset dy="4"/>
<feGaussianBlur stdDeviation="2"/>
<feComposite in2="hardAlpha" operator="out"/>
<feColorMatrix type="matrix" values="0 0 0 0 0 0 0 0 0 0 0 0 0 0 0 0 0 0 0.25 0"/>
<feBlend mode="normal" in2="BackgroundImageFix" result="effect1_dropShadow_72_14"/>
<feBlend mode="normal" in="SourceGraphic" in2="effect1_dropShadow_72_14" result="shape"/>
</filter>
</defs>
</svg>
